<svg width="18" height="21" viewBox="0 0 18 21" fill="none" xmlns="http://www.w3.org/2000/svg">
<path fill-rule="evenodd" clip-rule="evenodd" d="M9 4.92114C7.20508 4.92114 5.75 6.37622 5.75 8.17114C5.75 9.96607 7.20508 11.4211 9 11.4211C10.7949 11.4211 12.25 9.96607 12.25 8.17114C12.25 6.37622 10.7949 4.92114 9 4.92114ZM7.25 8.17114C7.25 7.20464 8.03351 6.42114 9 6.42114C9.9665 6.42114 10.75 7.20464 10.75 8.17114C10.75 9.13764 9.9665 9.92114 9 9.92114C8.03351 9.92114 7.25 9.13764 7.25 8.17114Z" fill="#5F0D6C"/>
<path fill-rule="evenodd" clip-rule="evenodd" d="M9 0.921143C4.99594 0.921143 1.75 4.16708 1.75 8.17114C1.75 9.63927 2.18639 11.0055 2.93652 12.1471L0.350482 16.6263C0.203417 16.881 0.218821 17.1982 0.389877 17.4374C0.560933 17.6767 0.856064 17.7939 1.14467 17.7372L3.75854 17.2233L4.62047 19.7439C4.71564 20.0223 4.96471 20.2192 5.25745 20.2477C5.5502 20.2762 5.83258 20.131 5.97965 19.8763L8.55942 15.408C8.70516 15.4167 8.85207 15.4211 9 15.4211C9.14794 15.4211 9.29485 15.4167 9.44059 15.408L12.0204 19.8763C12.1676 20.1313 12.4504 20.2765 12.7434 20.2477C13.0364 20.2188 13.2854 20.0212 13.3801 19.7424L14.2376 17.2167L16.8537 17.7369C17.1425 17.7943 17.4382 17.6774 17.6097 17.4381C17.7812 17.1988 17.7967 16.8813 17.6495 16.6263L15.0635 12.1471C15.8136 11.0055 16.25 9.63927 16.25 8.17114C16.25 4.16708 13.0041 0.921143 9 0.921143ZM3.25 8.17114C3.25 4.99551 5.82437 2.42114 9 2.42114C12.1756 2.42114 14.75 4.99551 14.75 8.17114C14.75 11.3468 12.1756 13.9211 9 13.9211C5.82437 13.9211 3.25 11.3468 3.25 8.17114ZM6.98376 15.1371C5.83078 14.804 4.79597 14.1923 3.95691 13.3798L2.4747 15.947L4.11167 15.6252C4.47972 15.5529 4.84463 15.7635 4.96599 16.1185L5.50579 17.697L6.98376 15.1371ZM12.4918 17.6929L11.0163 15.1371C12.1692 14.804 13.204 14.1923 14.0431 13.3798L15.5229 15.9429L13.8851 15.6172C13.516 15.5438 13.1497 15.7554 13.0287 16.1117L12.4918 17.6929Z" fill="#5F0D6C"/>
</svg>
