<svg width="24" height="25" viewBox="0 0 24 25" fill="none" xmlns="http://www.w3.org/2000/svg">
<path fill-rule="evenodd" clip-rule="evenodd" d="M8.92955 5.14147C7.65833 4.99939 6.34242 4.99939 5.0712 5.14147C4.76231 5.17599 4.51872 5.42058 4.48397 5.71764C4.33217 7.01558 4.33217 8.32679 4.48397 9.62473C4.51872 9.92179 4.76231 10.1664 5.0712 10.2009C6.34242 10.343 7.65833 10.343 8.92955 10.2009C9.23844 10.1664 9.48203 9.92179 9.51678 9.62473C9.66858 8.32679 9.66858 7.01558 9.51678 5.71764C9.48203 5.42058 9.23844 5.17599 8.92955 5.14147ZM4.90459 3.65075C6.28654 3.4963 7.71421 3.4963 9.09616 3.65075C10.087 3.76149 10.8894 4.54148 11.0066 5.54339C11.172 6.9571 11.172 8.38527 11.0066 9.79898C10.8894 10.8009 10.087 11.5809 9.09616 11.6916C7.71421 11.8461 6.28654 11.8461 4.90459 11.6916C3.91375 11.5809 3.11131 10.8009 2.99413 9.79898C2.82878 8.38527 2.82878 6.9571 2.99413 5.54339C3.11131 4.54148 3.91375 3.76149 4.90459 3.65075Z" fill="#F6F6F2"/>
<path fill-rule="evenodd" clip-rule="evenodd" d="M8.92955 15.1415C7.65833 14.9994 6.34242 14.9994 5.0712 15.1415C4.76231 15.176 4.51872 15.4206 4.48397 15.7176C4.33217 17.0156 4.33217 18.3268 4.48397 19.6247C4.51872 19.9218 4.76231 20.1664 5.0712 20.2009C6.34242 20.343 7.65833 20.343 8.92955 20.2009C9.23844 20.1664 9.48203 19.9218 9.51678 19.6247C9.66858 18.3268 9.66858 17.0156 9.51678 15.7176C9.48203 15.4206 9.23844 15.176 8.92955 15.1415ZM4.90459 13.6508C6.28654 13.4963 7.71421 13.4963 9.09616 13.6508C10.087 13.7615 10.8894 14.5415 11.0066 15.5434C11.172 16.9571 11.172 18.3853 11.0066 19.799C10.8894 20.8009 10.087 21.5809 9.09616 21.6916C7.71421 21.8461 6.28654 21.8461 4.90459 21.6916C3.91375 21.5809 3.11131 20.8009 2.99413 19.799C2.82878 18.3853 2.82878 16.9571 2.99413 15.5434C3.11131 14.5415 3.91375 13.7615 4.90459 13.6508Z" fill="#F6F6F2"/>
<path fill-rule="evenodd" clip-rule="evenodd" d="M18.9295 5.14147C17.6583 4.99939 16.3424 4.99939 15.0712 5.14147C14.7623 5.17599 14.5187 5.42058 14.484 5.71764C14.3322 7.01558 14.3322 8.32679 14.484 9.62473C14.5187 9.92179 14.7623 10.1664 15.0712 10.2009C16.3424 10.343 17.6583 10.343 18.9295 10.2009C19.2384 10.1664 19.482 9.92179 19.5168 9.62473C19.6686 8.32679 19.6686 7.01558 19.5168 5.71764C19.482 5.42058 19.2384 5.17599 18.9295 5.14147ZM14.9046 3.65075C16.2865 3.4963 17.7142 3.4963 19.0962 3.65075C20.087 3.76149 20.8894 4.54148 21.0066 5.54339C21.172 6.9571 21.172 8.38527 21.0066 9.79898C20.8894 10.8009 20.087 11.5809 19.0962 11.6916C17.7142 11.8461 16.2865 11.8461 14.9046 11.6916C13.9138 11.5809 13.1113 10.8009 12.9941 9.79898C12.8288 8.38527 12.8288 6.9571 12.9941 5.54339C13.1113 4.54148 13.9138 3.76149 14.9046 3.65075Z" fill="#F6F6F2"/>
<path fill-rule="evenodd" clip-rule="evenodd" d="M18.9295 15.1415C17.6583 14.9994 16.3424 14.9994 15.0712 15.1415C14.7623 15.176 14.5187 15.4206 14.484 15.7176C14.3322 17.0156 14.3322 18.3268 14.484 19.6247C14.5187 19.9218 14.7623 20.1664 15.0712 20.2009C16.3424 20.343 17.6583 20.343 18.9295 20.2009C19.2384 20.1664 19.482 19.9218 19.5168 19.6247C19.6686 18.3268 19.6686 17.0156 19.5168 15.7176C19.482 15.4206 19.2384 15.176 18.9295 15.1415ZM14.9046 13.6508C16.2865 13.4963 17.7142 13.4963 19.0962 13.6508C20.087 13.7615 20.8894 14.5415 21.0066 15.5434C21.172 16.9571 21.172 18.3853 21.0066 19.799C20.8894 20.8009 20.087 21.5809 19.0962 21.6916C17.7142 21.8461 16.2865 21.8461 14.9046 21.6916C13.9138 21.5809 13.1113 20.8009 12.9941 19.799C12.8288 18.3853 12.8288 16.9571 12.9941 15.5434C13.1113 14.5415 13.9138 13.7615 14.9046 13.6508Z" fill="#F6F6F2"/>
</svg>
