<svg width="16" height="21" viewBox="0 0 16 21" fill="none" xmlns="http://www.w3.org/2000/svg">
<path d="M11.75 11.6711C11.75 11.2569 11.4142 10.9211 11 10.9211H5C4.58579 10.9211 4.25 11.2569 4.25 11.6711C4.25 12.0854 4.58579 12.4211 5 12.4211H11C11.4142 12.4211 11.75 12.0854 11.75 11.6711Z" fill="#5F0D6C"/>
<path d="M11.75 15.6711C11.75 15.2569 11.4142 14.9211 11 14.9211H5C4.58579 14.9211 4.25 15.2569 4.25 15.6711C4.25 16.0854 4.58579 16.4211 5 16.4211H11C11.4142 16.4211 11.75 16.0854 11.75 15.6711Z" fill="#5F0D6C"/>
<path fill-rule="evenodd" clip-rule="evenodd" d="M3 0.921143C1.48122 0.921143 0.25 2.15236 0.25 3.67114V17.6711C0.25 19.1899 1.48122 20.4211 3 20.4211H13C14.5188 20.4211 15.75 19.1899 15.75 17.6711V6.6388C15.75 6.25803 15.6258 5.88765 15.3963 5.58384L12.3985 1.61618C12.0677 1.17844 11.5509 0.921143 11.0022 0.921143H3ZM1.75 3.67114C1.75 2.98079 2.30964 2.42114 3 2.42114H10.25V6.81819C10.25 7.2324 10.5858 7.56819 11 7.56819H14.25V17.6711C14.25 18.3615 13.6904 18.9211 13 18.9211H3C2.30964 18.9211 1.75 18.3615 1.75 17.6711V3.67114Z" fill="#5F0D6C"/>
</svg>
