<svg width="45" height="45" viewBox="0 0 45 45" fill="none" xmlns="http://www.w3.org/2000/svg">
<path fill-rule="evenodd" clip-rule="evenodd" d="M38.0033 34.6995C37.2512 35.4236 36.254 35.8893 35.1552 35.968L32.1183 36.1852C25.7143 36.6434 19.2858 36.6434 12.8818 36.1852L10.0745 35.9844C7.85689 35.8257 6.02774 34.1863 5.62814 31.9992C4.81849 27.5679 4.67988 23.0401 5.21695 18.5676L5.72219 14.3603C6.02202 11.8634 8.14023 9.98438 10.655 9.98438H14.9039C16.9765 9.98438 18.7032 11.4649 19.0842 13.4259L34.5006 13.4259C36.9228 13.4259 38.986 15.1859 39.3678 17.5778L39.4866 18.3222C39.5115 18.4786 39.5356 18.6351 39.5587 18.7917H40.1817C42.9118 18.7917 44.7888 21.5355 43.7993 24.08L41.4826 30.0371C40.7632 31.887 39.5563 33.4954 38.0033 34.6995ZM36.6213 18.0162L36.7401 18.7605C36.7417 18.7709 36.7434 18.7813 36.745 18.7917H19.4785C17.3727 18.7917 15.4836 20.0861 14.7234 22.0499L10.3998 33.2193L10.273 33.2102C9.32093 33.1421 8.53565 32.4383 8.36409 31.4993C7.60456 27.3424 7.47454 23.0948 7.97836 18.8992L8.4836 14.6919C8.61558 13.5928 9.54801 12.7656 10.655 12.7656H14.9039C15.7199 12.7656 16.3813 13.4271 16.3813 14.243C16.3813 15.3278 17.2607 16.2072 18.3455 16.2072H34.5006C35.556 16.2072 36.4549 16.974 36.6213 18.0162ZM13.3018 33.4267C19.5004 33.8597 25.7219 33.8545 31.9199 33.4111L34.9567 33.1938L35.3175 33.1601L35.315 33.1555C36.9476 32.2343 38.211 30.7762 38.8905 29.0291L41.2071 23.0719C41.4876 22.3507 40.9556 21.5729 40.1817 21.5729H19.4785C18.5214 21.5729 17.6626 22.1613 17.3171 23.0539L13.3018 33.4267Z" fill="#252525"/>
</svg>
