<svg width="17" height="17" viewBox="0 0 17 17" fill="none" xmlns="http://www.w3.org/2000/svg">
<path d="M9 14.9211C8.58579 14.9211 8.25 15.2569 8.25 15.6711C8.25 16.0854 8.58579 16.4211 9 16.4211H15C15.9665 16.4211 16.75 15.6376 16.75 14.6711V2.67114C16.75 1.70464 15.9665 0.921143 15 0.921143H9C8.58579 0.921143 8.25 1.25693 8.25 1.67114C8.25 2.08536 8.58579 2.42114 9 2.42114L15 2.42114C15.1381 2.42114 15.25 2.53307 15.25 2.67114L15.25 14.6711C15.25 14.8092 15.1381 14.9211 15 14.9211H9Z" fill="#F6F6F2"/>
<path fill-rule="evenodd" clip-rule="evenodd" d="M11.5031 11.0364C12.1934 11.0364 12.7531 10.4767 12.7531 9.78636V7.54585C12.7531 6.85549 12.1934 6.29585 11.5031 6.29585L6.89048 6.29585C6.88396 6.22242 6.87713 6.14901 6.87 6.07563L6.81597 5.51974C6.73354 4.67164 5.83294 4.16372 5.06451 4.53198C3.43029 5.31518 1.95085 6.38693 0.697355 7.69568L0.598156 7.79925C0.133948 8.28393 0.133948 9.04827 0.598155 9.53294L0.697355 9.63651C1.95085 10.9453 3.43029 12.017 5.06451 12.8002C5.83293 13.1685 6.73354 12.6606 6.81597 11.8125L6.87 11.2566C6.87713 11.1832 6.88396 11.1098 6.89048 11.0364H11.5031ZM6.19511 9.53636C5.92874 9.53636 5.69326 9.67565 5.56008 9.88712C5.49523 9.9901 5.45464 10.1102 5.44656 10.2397C5.42842 10.5306 5.40524 10.8212 5.37703 11.1115L5.36135 11.2728C4.3253 10.7389 3.36316 10.074 2.49838 9.29505C2.27402 9.09298 2.05622 8.88322 1.84538 8.6661C2.86892 7.61204 4.05651 6.73183 5.36135 6.05939L5.37703 6.22073C5.40524 6.51101 5.42842 6.80165 5.44656 7.09253C5.47122 7.48785 5.79902 7.79585 6.19511 7.79585H11.2531V9.53636H6.19511Z" fill="#F6F6F2"/>
</svg>
