<svg width="22" height="22" viewBox="0 0 22 22" fill="none" xmlns="http://www.w3.org/2000/svg">
<g id="clarity:success-standard-solid" clip-path="url(#clip0_259_1527)">
<path id="Vector" d="M10.9999 1.22223C9.06609 1.22223 7.17565 1.79569 5.56771 2.87008C3.95976 3.94448 2.70652 5.47156 1.96646 7.25821C1.2264 9.04487 1.03277 11.0109 1.41005 12.9076C1.78733 14.8043 2.71857 16.5465 4.08602 17.9139C5.45346 19.2814 7.1957 20.2126 9.0924 20.5899C10.9891 20.9672 12.9551 20.7736 14.7417 20.0335C16.5284 19.2934 18.0555 18.0402 19.1299 16.4322C20.2043 14.8243 20.7777 12.9339 20.7777 11C20.7777 8.40678 19.7476 5.91976 17.9139 4.08607C16.0802 2.25238 13.5932 1.22223 10.9999 1.22223ZM17.3861 7.71834L9.35606 15.7422L4.61384 11C4.45176 10.8379 4.36071 10.6181 4.36071 10.3889C4.36071 10.1597 4.45176 9.93986 4.61384 9.77778C4.77592 9.61571 4.99574 9.52465 5.22495 9.52465C5.45416 9.52465 5.67398 9.61571 5.83606 9.77778L9.36828 13.31L16.1761 6.50834C16.2563 6.42809 16.3516 6.36443 16.4564 6.321C16.5613 6.27756 16.6737 6.25521 16.7872 6.25521C16.9007 6.25521 17.013 6.27756 17.1179 6.321C17.2228 6.36443 17.318 6.42809 17.3983 6.50834C17.4785 6.58859 17.5422 6.68387 17.5856 6.78872C17.6291 6.89357 17.6514 7.00596 17.6514 7.11945C17.6514 7.23294 17.6291 7.34533 17.5856 7.45018C17.5422 7.55504 17.4785 7.65031 17.3983 7.73056L17.3861 7.71834Z" fill="#FFAC33"/>
</g>
<defs>
<clipPath id="clip0_259_1527">
<rect width="22" height="22" fill="white"/>
</clipPath>
</defs>
</svg>
