<svg width="16" height="18" viewBox="0 0 16 18" fill="none" xmlns="http://www.w3.org/2000/svg">
<path fill-rule="evenodd" clip-rule="evenodd" d="M3.75 5.17114C3.75 2.82393 5.65279 0.921143 8 0.921143C10.3472 0.921143 12.25 2.82393 12.25 5.17114C12.25 7.51835 10.3472 9.42114 8 9.42114C5.65279 9.42114 3.75 7.51835 3.75 5.17114ZM8 2.42114C6.48122 2.42114 5.25 3.65236 5.25 5.17114C5.25 6.68993 6.48122 7.92114 8 7.92114C9.51878 7.92114 10.75 6.68993 10.75 5.17114C10.75 3.65236 9.51878 2.42114 8 2.42114Z" fill="#5F0D6C"/>
<path fill-rule="evenodd" clip-rule="evenodd" d="M4 12.4211C2.75736 12.4211 1.75 13.4285 1.75 14.6711V15.8594C1.75 15.8775 1.76311 15.8929 1.78097 15.8959C5.89972 16.5683 10.1003 16.5683 14.219 15.8959C14.2369 15.8929 14.25 15.8775 14.25 15.8594V14.6711C14.25 13.4285 13.2426 12.4211 12 12.4211H11.6591C11.6328 12.4211 11.6066 12.4253 11.5815 12.4335L10.716 12.7161C8.95119 13.2924 7.04881 13.2924 5.28398 12.7161L4.41847 12.4335C4.39342 12.4253 4.36722 12.4211 4.34087 12.4211H4ZM0.25 14.6711C0.25 12.6001 1.92893 10.9211 4 10.9211H4.34087C4.52536 10.9211 4.70869 10.9503 4.88407 11.0076L5.74959 11.2902C7.21187 11.7677 8.78813 11.7677 10.2504 11.2902L11.1159 11.0076C11.2913 10.9503 11.4746 10.9211 11.6591 10.9211H12C14.0711 10.9211 15.75 12.6001 15.75 14.6711V15.8594C15.75 16.6127 15.2041 17.2549 14.4607 17.3763C10.1819 18.0748 5.8181 18.0748 1.53927 17.3763C0.795884 17.2549 0.25 16.6127 0.25 15.8594V14.6711Z" fill="#5F0D6C"/>
</svg>
